#N canvas 580 38 450 300 10;
#X floatatom 52 40 5 0 0 0 - - -, f 5;
#X obj 55 67 print;
#X obj 215 158 dac~;
#X obj 181 103 osc~ 440;
#X floatatom 172 58 5 0 0 0 - - -, f 5;
#X obj 269 108 osc~ 600;
#X obj 35 173 textfile;
#X msg 73 139 print;
#X obj 25 238 print list;
#X obj 85 212 print done;
#X msg 31 76 read /Users/matthewxi/Documents/Projects/Sonification/
R/file.out;
#X connect 0 0 1 0;
#X connect 3 0 2 0;
#X connect 4 0 3 0;
#X connect 5 0 2 0;
#X connect 6 0 8 0;
#X connect 6 1 9 0;
#X connect 7 0 6 0;
#X connect 10 0 6 0;
