#N canvas 205 22 1235 779 10;
#X obj 35 173 textfile;
#X msg 63 75 print;
#X obj 25 238 print list;
#X obj 99 201 print done;
#X floatatom 27 353 5 0 0 0 - - -;
#X obj 281 206 +;
#X floatatom 295 164 5 0 0 0 - - -;
#X floatatom 211 258 5 0 0 0 - - -;
#X floatatom 200 185 5 0 0 0 - - -;
#X obj 247 71 bng 15 250 50 0 empty empty Rewind 17 7 0 10 -262144
-1 -1;
#X floatatom 221 505 5 0 0 0 - - -;
#X floatatom 289 503 5 0 0 0 - - -;
#X obj 199 685 dac~;
#X obj 323 607 osc~;
#X obj 237 609 osc~;
#X floatatom 394 420 5 0 0 0 - - -;
#X obj 239 208 int;
#X obj 340 458 int;
#X obj 108 246 log;
#X obj 117 271 / 2.30258;
#X floatatom 129 429 5 0 0 0 - - -;
#X obj 502 148 textfile;
#X msg 499 18 read /Users/matthewxi/Documents/Projects/Sonification/R/file2.out
cr;
#X obj 605 83 bng 15 250 50 0 empty empty empty 17 7 0 10 -262144 -1
-1;
#X obj 494 197 print list;
#X msg 106 141 rewind;
#X msg 523 73 rewind;
#X obj 514 331 bng 15 250 50 0 empty empty empty 17 7 0 10 -262144
-1 -1;
#X msg 489 441 bang;
#X obj 706 466 int;
#X floatatom 707 512 5 0 0 0 - - -;
#X obj 779 445 int;
#X obj 779 478 + 1;
#X obj 547 397 delay 5000;
#X floatatom 445 478 5 0 0 0 - - -;
#X msg 119 91 bang;
#X obj 532 552 int;
#X msg 525 629 bang;
#X obj 632 523 < 3;
#X obj 530 597 > 0;
#X obj 617 595 + 1;
#X floatatom 611 664 5 0 0 0 - - -;
#X obj 552 508 delay 100;
#X msg 632 545 bang;
#X text 709 618 Need to get this to it sends n bangs to the loader..
;
#X floatatom 74 510 5 0 0 0 - - -;
#X floatatom 142 508 5 0 0 0 - - -;
#X obj 176 612 osc~;
#X obj 90 614 osc~;
#X obj 215 440 demux 1 2 3 4;
#X obj 221 324 mod 4;
#X msg 45 24 read /Users/matthewxi/Documents/Projects/Sonification/R/file4.out
cr;
#X obj 157 354 * 880;
#X obj 138 306 - 4;
#X connect 0 0 2 0;
#X connect 0 0 4 0;
#X connect 0 0 18 0;
#X connect 0 1 3 0;
#X connect 1 0 0 0;
#X connect 5 0 16 0;
#X connect 6 0 5 0;
#X connect 7 0 50 0;
#X connect 8 0 16 0;
#X connect 9 0 8 0;
#X connect 9 0 17 0;
#X connect 9 0 25 0;
#X connect 10 0 14 0;
#X connect 11 0 13 0;
#X connect 13 0 12 0;
#X connect 14 0 12 0;
#X connect 15 0 17 1;
#X connect 16 0 5 1;
#X connect 16 0 7 0;
#X connect 17 0 11 0;
#X connect 17 0 10 0;
#X connect 17 0 46 0;
#X connect 17 0 45 0;
#X connect 18 0 19 0;
#X connect 19 0 53 0;
#X connect 21 0 24 0;
#X connect 22 0 21 0;
#X connect 23 0 21 0;
#X connect 25 0 0 0;
#X connect 26 0 21 0;
#X connect 27 0 33 0;
#X connect 27 0 34 0;
#X connect 27 0 42 0;
#X connect 28 0 33 0;
#X connect 29 0 31 1;
#X connect 29 0 30 0;
#X connect 31 0 32 0;
#X connect 32 0 29 0;
#X connect 33 0 28 0;
#X connect 33 0 31 0;
#X connect 34 0 29 0;
#X connect 34 0 36 0;
#X connect 35 0 0 0;
#X connect 35 0 5 0;
#X connect 36 0 39 0;
#X connect 36 0 38 0;
#X connect 36 0 40 1;
#X connect 36 0 41 0;
#X connect 37 0 35 0;
#X connect 38 0 43 0;
#X connect 39 0 37 0;
#X connect 43 0 40 0;
#X connect 45 0 48 0;
#X connect 46 0 47 0;
#X connect 47 0 12 0;
#X connect 48 0 12 0;
#X connect 49 0 45 0;
#X connect 49 1 46 0;
#X connect 49 2 10 0;
#X connect 49 3 11 0;
#X connect 50 0 49 1;
#X connect 51 0 0 0;
#X connect 52 0 20 0;
#X connect 52 0 49 0;
#X connect 53 0 52 0;
